<svg width="272" height="272" viewBox="0 0 272 272" fill="none" xmlns="http://www.w3.org/2000/svg">
<path d="M135.833 271.667C117.043 271.667 99.3847 268.099 82.8584 260.963C66.332 253.827 51.9563 244.151 39.7313 231.935C27.5063 219.719 17.8304 205.344 10.7037 188.808C3.57696 172.273 0.00907275 154.615 1.71941e-05 135.833C-0.00903836 117.052 3.55885 99.3938 10.7037 82.8583C17.8485 66.3229 27.5244 51.9472 39.7313 39.7313C51.9382 27.5153 66.3139 17.8394 82.8584 10.7037C99.4029 3.56789 117.061 0 135.833 0C154.606 0 172.264 3.56789 188.808 10.7037C205.353 17.8394 219.729 27.5153 231.935 39.7313C244.142 51.9472 253.823 66.3229 260.977 82.8583C268.13 99.3938 271.694 117.052 271.667 135.833C271.64 154.615 268.072 172.273 260.963 188.808C253.854 205.344 244.179 219.719 231.935 231.935C219.692 244.151 205.317 253.832 188.808 260.977C172.3 268.121 154.642 271.685 135.833 271.667ZM135.833 244.5C166.169 244.5 191.865 233.973 212.919 212.919C233.973 191.865 244.5 166.169 244.5 135.833C244.5 134.249 244.446 132.605 244.337 130.903C244.228 129.2 244.169 127.787 244.16 126.665C243.028 133.23 239.972 138.663 234.992 142.965C230.011 147.266 224.125 149.417 217.333 149.417H190.167C182.696 149.417 176.303 146.759 170.987 141.443C165.671 136.128 163.009 129.73 163 122.25V108.667H108.667V81.5C108.667 74.0292 111.329 67.6359 116.654 62.3203C121.978 57.0047 128.372 54.3424 135.833 54.3333H149.417C149.417 49.1264 150.834 44.5443 153.668 40.587C156.503 36.6297 159.953 33.4014 164.019 30.9021C159.491 29.7701 154.909 28.8646 150.272 28.1854C145.636 27.5062 140.823 27.1667 135.833 27.1667C105.497 27.1667 79.8021 37.6937 58.7479 58.7479C37.6938 79.8021 27.1667 105.497 27.1667 135.833H95.0834C110.025 135.833 122.816 141.153 133.456 151.794C144.097 162.434 149.417 175.225 149.417 190.167V203.75H108.667V241.104C113.194 242.236 117.668 243.087 122.087 243.658C126.506 244.228 131.088 244.509 135.833 244.5Z" fill="white"/>
</svg>
