<svg width="200" height="200" viewBox="0 0 200 200" fill="none" xmlns="http://www.w3.org/2000/svg">
<path d="M65.0003 16.6667H135C161.667 16.6667 183.334 38.3333 183.334 65V135C183.334 147.819 178.241 160.113 169.177 169.177C160.113 178.241 147.819 183.333 135 183.333H65.0003C38.3337 183.333 16.667 161.667 16.667 135V65C16.667 52.1812 21.7592 39.8874 30.8235 30.8232C39.8878 21.7589 52.1815 16.6667 65.0003 16.6667ZM63.3337 33.3333C55.3772 33.3333 47.7466 36.494 42.1205 42.1201C36.4944 47.7462 33.3337 55.3768 33.3337 63.3333V136.667C33.3337 153.25 46.7503 166.667 63.3337 166.667H136.667C144.623 166.667 152.254 163.506 157.88 157.88C163.506 152.254 166.667 144.623 166.667 136.667V63.3333C166.667 46.75 153.25 33.3333 136.667 33.3333H63.3337ZM143.75 45.8333C146.513 45.8333 149.163 46.9308 151.116 48.8843C153.07 50.8378 154.167 53.4873 154.167 56.25C154.167 59.0127 153.07 61.6622 151.116 63.6157C149.163 65.5692 146.513 66.6667 143.75 66.6667C140.988 66.6667 138.338 65.5692 136.385 63.6157C134.431 61.6622 133.334 59.0127 133.334 56.25C133.334 53.4873 134.431 50.8378 136.385 48.8843C138.338 46.9308 140.988 45.8333 143.75 45.8333ZM100 58.3333C111.051 58.3333 121.649 62.7232 129.463 70.5372C137.277 78.3512 141.667 88.9493 141.667 100C141.667 111.051 137.277 121.649 129.463 129.463C121.649 137.277 111.051 141.667 100 141.667C88.9496 141.667 78.3516 137.277 70.5375 129.463C62.7235 121.649 58.3337 111.051 58.3337 100C58.3337 88.9493 62.7235 78.3512 70.5375 70.5372C78.3516 62.7232 88.9496 58.3333 100 58.3333ZM100 75C93.3699 75 87.0111 77.6339 82.3227 82.3223C77.6342 87.0107 75.0003 93.3696 75.0003 100C75.0003 106.63 77.6342 112.989 82.3227 117.678C87.0111 122.366 93.3699 125 100 125C106.631 125 112.99 122.366 117.678 117.678C122.366 112.989 125 106.63 125 100C125 93.3696 122.366 87.0107 117.678 82.3223C112.99 77.6339 106.631 75 100 75Z" fill="white"/>
</svg>
