<svg width="200" height="200" viewBox="0 0 200 200" fill="none" xmlns="http://www.w3.org/2000/svg">
<g clip-path="url(#clip0_687_105)">
<path d="M190.5 76.1875V66.6875H180.938V57.125H171.438V38.125H161.938V114.313H171.438V104.75H180.938V95.25H190.5V180.938H200V76.1875H190.5ZM180.938 180.938H190.5V190.5H180.938V180.938ZM19.0625 190.5H180.938V200H19.0625V190.5ZM152.375 114.313H161.938V123.812H152.375V114.313ZM142.875 161.937H152.375V171.437H142.875V161.937ZM142.875 123.812H152.375V133.312H142.875V123.812ZM133.313 152.375H142.875V161.937H133.313V152.375ZM133.313 133.312H142.875V142.875H133.313V133.312ZM133.313 66.6875H142.875V95.25H133.313V66.6875ZM123.813 57.125H133.313V66.6875H123.813V57.125ZM66.6875 142.875H133.313V152.375H66.6875V142.875ZM114.313 95.25H133.313V104.75H114.313V95.25ZM114.313 66.6875H85.75V76.1875H104.75V95.25H114.313V66.6875ZM85.75 95.25H104.75V104.75H85.75V95.25ZM76.1875 47.625H123.813V57.125H76.1875V47.625ZM76.1875 114.313H123.813V123.812H76.1875V114.313ZM76.1875 76.1875H85.75V95.25H76.1875V76.1875Z" fill="white"/>
<path d="M66.6875 104.75H76.1875V114.313H66.6875V104.75ZM66.6875 57.125H76.1875V66.6875H66.6875V57.125ZM57.125 152.375H66.6875V161.937H57.125V152.375ZM57.125 133.312H66.6875V142.875H57.125V133.312ZM57.125 66.6875H66.6875V104.75H57.125V66.6875ZM47.625 161.937H57.125V171.438H47.625V161.937ZM47.625 123.812H57.125V133.312H47.625V123.812ZM161.937 38.125V28.5625H142.875V19.0625H133.312V9.5H123.812V0H76.1875V9.5H66.6875V19.0625H57.125V28.5625H38.125V38.125H161.937ZM38.125 114.313H47.625V123.812H38.125V114.313ZM9.5 180.938H19.0625V190.5H9.5V180.938Z" fill="white"/>
<path d="M9.5 95.25H19.0625V104.75H28.5625V114.313H38.125V38.125H28.5625V57.125H19.0625V66.6875H9.5V76.1875H0V180.938H9.5V95.25Z" fill="white"/>
</g>
<defs>
<clipPath id="clip0_687_105">
<rect width="200" height="200" fill="white"/>
</clipPath>
</defs>
</svg>
