<svg width="200" height="200" viewBox="0 0 200 200" fill="none" xmlns="http://www.w3.org/2000/svg">
<path d="M55.1667 89.9167C67.1667 113.5 86.5 132.75 110.083 144.833L128.417 126.5C130.667 124.25 134 123.5 136.917 124.5C146.25 127.583 156.333 129.25 166.667 129.25C171.25 129.25 175 133 175 137.583V166.667C175 171.25 171.25 175 166.667 175C88.4167 175 25 111.583 25 33.3333C25 28.75 28.75 25 33.3333 25H62.5C67.0833 25 70.8333 28.75 70.8333 33.3333C70.8333 43.75 72.5 53.75 75.5833 63.0833C76.5 66 75.8333 69.25 73.5 71.5833L55.1667 89.9167Z" fill="white"/>
</svg>
