<svg width="150" height="169" viewBox="0 0 150 169" fill="none" xmlns="http://www.w3.org/2000/svg">
<path d="M0 75.8427C0 33.9548 33.5775 0 75 0C116.422 0 150 33.9548 150 75.8427V114.932C150 127.416 139.35 136.517 127.5 136.517H105V75.8427H135C135 59.7509 128.679 44.3182 117.426 32.9396C106.174 21.561 90.913 15.1685 75 15.1685C59.087 15.1685 43.8258 21.561 32.5736 32.9396C21.3214 44.3182 15 59.7509 15 75.8427H45V136.517H30.4725C31.304 139.774 33.1823 142.658 35.8121 144.718C38.4419 146.777 41.6739 147.894 45 147.893H56.73C59.1 144.458 63.0375 142.205 67.5 142.205H82.5C85.981 142.205 89.3194 143.603 91.7808 146.092C94.2422 148.582 95.625 151.957 95.625 155.478C95.625 158.998 94.2422 162.374 91.7808 164.863C89.3194 167.352 85.981 168.75 82.5 168.75H67.5C63.0375 168.75 59.1 166.497 56.73 163.062H45C37.4843 163.063 30.2421 160.211 24.7061 155.071C19.1702 149.93 15.7438 142.876 15.105 135.303C6.555 132.444 0 124.731 0 114.94V75.8427Z" fill="white"/>
</svg>
