<svg width="200" height="200" viewBox="0 0 200 200" fill="none" xmlns="http://www.w3.org/2000/svg">
<path d="M90.6251 100C90.6251 102.486 91.6129 104.871 93.371 106.629C95.1292 108.387 97.5137 109.375 100 109.375C102.487 109.375 104.871 108.387 106.629 106.629C108.387 104.871 109.375 102.486 109.375 100C109.375 97.5136 108.387 95.129 106.629 93.3709C104.871 91.6127 102.487 90.625 100 90.625C97.5137 90.625 95.1292 91.6127 93.371 93.3709C91.6129 95.129 90.6251 97.5136 90.6251 100ZM129.688 100C129.688 102.486 130.675 104.871 132.434 106.629C134.192 108.387 136.576 109.375 139.063 109.375C141.549 109.375 143.934 108.387 145.692 106.629C147.45 104.871 148.438 102.486 148.438 100C148.438 97.5136 147.45 95.129 145.692 93.3709C143.934 91.6127 141.549 90.625 139.063 90.625C136.576 90.625 134.192 91.6127 132.434 93.3709C130.675 95.129 129.688 97.5136 129.688 100ZM51.5626 100C51.5626 102.486 52.5504 104.871 54.3085 106.629C56.0667 108.387 58.4512 109.375 60.9376 109.375C63.424 109.375 65.8086 108.387 67.5668 106.629C69.3249 104.871 70.3126 102.486 70.3126 100C70.3126 97.5136 69.3249 95.129 67.5668 93.3709C65.8086 91.6127 63.424 90.625 60.9376 90.625C58.4512 90.625 56.0667 91.6127 54.3085 93.3709C52.5504 95.129 51.5626 97.5136 51.5626 100ZM180.703 66.0937C176.289 55.6055 169.961 46.1914 161.895 38.1055C153.885 30.0665 144.376 23.6764 133.906 19.2969C123.164 14.7852 111.758 12.5 100 12.5H99.6095C87.7736 12.5586 76.3087 14.9023 65.5275 19.5117C55.1479 23.9362 45.7281 30.3376 37.7931 38.3594C29.8048 46.4258 23.5353 55.8008 19.1994 66.25C14.7072 77.0703 12.4415 88.5742 12.5001 100.41C12.5664 113.974 15.7754 127.338 21.8751 139.453V169.141C21.8751 171.523 22.8217 173.809 24.5066 175.494C26.1915 177.178 28.4767 178.125 30.8595 178.125H60.5665C72.6817 184.225 86.0456 187.434 99.6095 187.5H100.02C111.719 187.5 123.067 185.234 133.75 180.801C144.167 176.474 153.64 170.158 161.641 162.207C169.707 154.219 176.055 144.883 180.488 134.473C185.098 123.691 187.442 112.227 187.5 100.391C187.559 88.4961 185.254 76.9531 180.703 66.0937ZM151.192 151.641C137.5 165.195 119.336 172.656 100 172.656H99.6681C87.8908 172.598 76.1915 169.668 65.8595 164.16L64.2189 163.281H36.7189V135.781L35.84 134.141C30.3322 123.809 27.4025 112.109 27.3439 100.332C27.2658 80.8594 34.7072 62.5781 48.3595 48.8086C61.9923 35.0391 80.215 27.4219 99.6876 27.3438H100.02C109.785 27.3438 119.258 29.2383 128.184 32.9883C136.895 36.6406 144.707 41.8945 151.426 48.6133C158.125 55.3125 163.399 63.1445 167.051 71.8555C170.84 80.8789 172.735 90.4492 172.695 100.332C172.578 119.785 164.942 138.008 151.192 151.641Z" fill="white"/>
</svg>
