<svg width="200" height="200" viewBox="0 0 200 200" fill="none" xmlns="http://www.w3.org/2000/svg">
<path d="M138.334 48.5C132.639 41.9961 129.499 33.645 129.5 25H103.75V128.333C103.556 133.927 101.196 139.226 97.1696 143.112C93.1428 146.999 87.7636 149.17 82.167 149.167C70.3337 149.167 60.5003 139.5 60.5003 127.5C60.5003 113.167 74.3337 102.417 88.5837 106.833V80.5C59.8337 76.6667 34.667 99 34.667 127.5C34.667 155.25 57.667 175 82.0837 175C108.25 175 129.5 153.75 129.5 127.5V75.0833C139.942 82.5821 152.478 86.6054 165.334 86.5833V60.8333C165.334 60.8333 149.667 61.5833 138.334 48.5Z" fill="white"/>
</svg>
