<svg width="200" height="200" viewBox="0 0 200 200" fill="none" xmlns="http://www.w3.org/2000/svg">
<path d="M158.75 40.9167C151.109 33.2009 142.008 27.083 131.979 22.9197C121.95 18.7563 111.192 16.6307 100.333 16.6667C54.833 16.6667 17.7497 53.75 17.7497 99.25C17.7497 113.833 21.583 128 28.7497 140.5L17.083 183.333L60.833 171.833C72.9163 178.417 86.4997 181.917 100.333 181.917C145.833 181.917 182.916 144.833 182.916 99.3333C182.916 77.25 174.333 56.5 158.75 40.9167ZM100.333 167.917C87.9997 167.917 75.9163 164.583 65.333 158.333L62.833 156.833L36.833 163.667L43.7497 138.333L42.083 135.75C35.2292 124.809 31.5907 112.161 31.583 99.25C31.583 61.4167 62.4163 30.5833 100.25 30.5833C118.583 30.5833 135.833 37.75 148.75 50.75C155.146 57.1155 160.216 64.6879 163.663 73.0277C167.111 81.3676 168.868 90.309 168.833 99.3333C169 137.167 138.166 167.917 100.333 167.917ZM138 116.583C135.916 115.583 125.75 110.583 123.916 109.833C122 109.167 120.666 108.833 119.25 110.833C117.833 112.917 113.916 117.583 112.75 118.917C111.583 120.333 110.333 120.5 108.25 119.417C106.166 118.417 99.4997 116.167 91.6663 109.167C85.4997 103.667 81.4163 96.9167 80.1663 94.8333C78.9997 92.75 79.9997 91.6667 81.083 90.5833C81.9997 89.6667 83.1663 88.1667 84.1663 87C85.1663 85.8333 85.583 84.9167 86.2497 83.5833C86.9163 82.1667 86.583 81 86.083 80C85.583 79 81.4163 68.8333 79.7497 64.6667C78.083 60.6667 76.333 61.1667 75.083 61.0833H71.083C69.6663 61.0833 67.4997 61.5833 65.583 63.6667C63.7497 65.75 58.4163 70.75 58.4163 80.9167C58.4163 91.0833 65.833 100.917 66.833 102.25C67.833 103.667 81.4163 124.5 102.083 133.417C107 135.583 110.833 136.833 113.833 137.75C118.75 139.333 123.25 139.083 126.833 138.583C130.833 138 139.083 133.583 140.75 128.75C142.5 123.917 142.5 119.833 141.916 118.917C141.333 118 140.083 117.583 138 116.583Z" fill="white"/>
</svg>
