<svg width="130" height="130" viewBox="0 0 130 130" fill="none" xmlns="http://www.w3.org/2000/svg">
<circle cx="65" cy="65" r="65" fill="white"/>
<path d="M49.5429 29.7144H80.7429C92.6286 29.7144 102.286 39.3715 102.286 51.2572V82.4572C102.286 88.1707 100.016 93.6502 95.976 97.6903C91.9359 101.73 86.4564 104 80.7429 104H49.5429C37.6571 104 28 94.3429 28 82.4572V51.2572C28 45.5437 30.2697 40.0642 34.3098 36.0241C38.3498 31.984 43.8293 29.7144 49.5429 29.7144ZM48.8 37.1429C45.2537 37.1429 41.8526 38.5517 39.345 41.0593C36.8373 43.567 35.4286 46.968 35.4286 50.5144V83.2001C35.4286 90.5915 41.4086 96.5715 48.8 96.5715H81.4857C85.032 96.5715 88.4331 95.1627 90.9407 92.6551C93.4484 90.1475 94.8571 86.7464 94.8571 83.2001V50.5144C94.8571 43.1229 88.8771 37.1429 81.4857 37.1429H48.8ZM84.6429 42.7144C85.8742 42.7144 87.0552 43.2035 87.9259 44.0742C88.7966 44.9449 89.2857 46.1258 89.2857 47.3572C89.2857 48.5886 88.7966 49.7695 87.9259 50.6402C87.0552 51.5109 85.8742 52.0001 84.6429 52.0001C83.4115 52.0001 82.2306 51.5109 81.3599 50.6402C80.4892 49.7695 80 48.5886 80 47.3572C80 46.1258 80.4892 44.9449 81.3599 44.0742C82.2306 43.2035 83.4115 42.7144 84.6429 42.7144ZM65.1429 48.2858C70.0683 48.2858 74.792 50.2424 78.2748 53.7252C81.7577 57.208 83.7143 61.9318 83.7143 66.8572C83.7143 71.7827 81.7577 76.5064 78.2748 79.9892C74.792 83.472 70.0683 85.4286 65.1429 85.4286C60.2174 85.4286 55.4937 83.472 52.0109 79.9892C48.5281 76.5064 46.5714 71.7827 46.5714 66.8572C46.5714 61.9318 48.5281 57.208 52.0109 53.7252C55.4937 50.2424 60.2174 48.2858 65.1429 48.2858ZM65.1429 55.7144C62.1876 55.7144 59.3534 56.8883 57.2637 58.978C55.174 61.0677 54 63.9019 54 66.8572C54 69.8125 55.174 72.6467 57.2637 74.7364C59.3534 76.8261 62.1876 78.0001 65.1429 78.0001C68.0981 78.0001 70.9324 76.8261 73.022 74.7364C75.1117 72.6467 76.2857 69.8125 76.2857 66.8572C76.2857 63.9019 75.1117 61.0677 73.022 58.978C70.9324 56.8883 68.0981 55.7144 65.1429 55.7144Z" fill="black"/>
</svg>
