<svg width="130" height="130" viewBox="0 0 130 130" fill="none" xmlns="http://www.w3.org/2000/svg">
<circle cx="65" cy="65" r="65" fill="white"/>
<path d="M79.6335 43.9028C77.095 41.0039 75.6959 37.2817 75.6963 33.4285H64.2192V79.4856C64.1325 81.9786 63.0808 84.3405 61.286 86.0729C59.4912 87.8053 57.0937 88.7728 54.5992 88.7713C49.3249 88.7713 44.942 84.4628 44.942 79.1142C44.942 72.7256 51.1077 67.9342 57.4592 69.9028V58.1656C44.6449 56.457 33.4277 66.4113 33.4277 79.1142C33.4277 91.4828 43.6792 100.286 54.562 100.286C66.2249 100.286 75.6963 90.8142 75.6963 79.1142V55.7513C80.3503 59.0936 85.9379 60.8869 91.6677 60.877V49.3999C91.6677 49.3999 84.6849 49.7342 79.6335 43.9028Z" fill="black"/>
</svg>
