<svg width="130" height="130" viewBox="0 0 130 130" fill="none" xmlns="http://www.w3.org/2000/svg">
<circle cx="65" cy="65" r="65" fill="white"/>
<path d="M55.7143 78L74.9914 66.8572L55.7143 55.7143V78ZM98.6514 48.9172C99.1343 50.6629 99.4686 53.0029 99.6914 55.9743C99.9514 58.9457 100.063 61.5086 100.063 63.7372L100.286 66.8572C100.286 74.9915 99.6914 80.9715 98.6514 84.7972C97.7229 88.14 95.5686 90.2943 92.2257 91.2229C90.48 91.7057 87.2857 92.04 82.3829 92.2629C77.5543 92.5229 73.1343 92.6343 69.0486 92.6343L63.1429 92.8572C47.58 92.8572 37.8857 92.2629 34.06 91.2229C30.7171 90.2943 28.5629 88.14 27.6343 84.7972C27.1514 83.0515 26.8171 80.7115 26.5943 77.74C26.3343 74.7686 26.2229 72.2057 26.2229 69.9772L26 66.8572C26 58.7229 26.5943 52.7429 27.6343 48.9172C28.5629 45.5743 30.7171 43.42 34.06 42.4915C35.8057 42.0086 39 41.6743 43.9029 41.4515C48.7314 41.1915 53.1514 41.08 57.2371 41.08L63.1429 40.8572C78.7057 40.8572 88.4 41.4515 92.2257 42.4915C95.5686 43.42 97.7229 45.5743 98.6514 48.9172Z" fill="black"/>
</svg>
