<svg width="65" height="66" viewBox="0 0 65 66" fill="none" xmlns="http://www.w3.org/2000/svg">
<path opacity="0.16" d="M1 56.6325C1 52.4169 2.65041 48.374 5.58817 45.3931C8.52593 42.4122 12.5104 40.7375 16.665 40.7375H47.995C52.1496 40.7375 56.1341 42.4122 59.0718 45.3931C62.0096 48.374 63.66 52.4169 63.66 56.6325C63.66 58.7404 62.8348 60.7618 61.3659 62.2523C59.897 63.7427 57.9048 64.58 55.8275 64.58H8.8325C6.75519 64.58 4.76296 63.7427 3.29409 62.2523C1.82521 60.7618 1 58.7404 1 56.6325Z" fill="white"/>
<path d="M1 56.6325C1 52.4169 2.65041 48.374 5.58817 45.3931C8.52593 42.4122 12.5104 40.7375 16.665 40.7375H47.995C52.1496 40.7375 56.1341 42.4122 59.0718 45.3931C62.0096 48.374 63.66 52.4169 63.66 56.6325C63.66 58.7404 62.8348 60.7618 61.3659 62.2523C59.897 63.7427 57.9048 64.58 55.8275 64.58H8.8325C6.75519 64.58 4.76296 63.7427 3.29409 62.2523C1.82521 60.7618 1 58.7404 1 56.6325Z" stroke="white" stroke-width="2" stroke-linejoin="round"/>
<path d="M32.3288 24.8425C38.8175 24.8425 44.0776 19.5052 44.0776 12.9213C44.0776 6.33733 38.8175 1 32.3288 1C25.8402 1 20.5801 6.33733 20.5801 12.9213C20.5801 19.5052 25.8402 24.8425 32.3288 24.8425Z" stroke="white" stroke-width="2"/>
</svg>
