<svg width="192" height="45" viewBox="0 0 192 45" fill="none" xmlns="http://www.w3.org/2000/svg">
<path d="M59.9587 6.89931C59.6071 5.56566 58.921 4.34982 57.9689 3.37291C57.0168 2.39601 55.8318 1.69212 54.5321 1.33138C49.7737 0 30.6247 0 30.6247 0C30.6247 0 11.475 0.0404031 6.71733 1.37178C5.41766 1.73259 4.2328 2.4365 3.28075 3.4134C2.32871 4.3903 1.64271 5.6061 1.29108 6.93971C-0.148166 15.6148 -0.706541 28.8328 1.33046 37.1604C1.68208 38.494 2.36808 39.7098 3.32013 40.6868C4.27217 41.6637 5.45704 42.3676 6.75671 42.7284C11.5147 44.0597 30.6641 44.0597 30.6641 44.0597C30.6641 44.0597 49.8135 44.0597 54.5715 42.7284C55.8711 42.3676 57.056 41.6637 58.008 40.6868C58.9601 39.7098 59.6461 38.494 59.9977 37.1604C61.5153 28.4734 61.9833 15.2635 59.9583 6.89969" fill="#FF0000"/>
<path d="M24.5293 31.4713L40.415 22.0301L24.5293 12.5884V31.4713Z" fill="white"/>
<path d="M184.213 12.7904C186.297 12.7904 187.87 13.1937 188.971 13.9602C190.072 14.7269 190.858 15.9375 191.33 17.5918C191.802 19.2461 191.998 21.5052 191.998 24.4103V29.1313H181.893V30.5836L182.05 34.5781C182.168 35.4658 182.365 36.1115 182.679 36.5147C182.994 36.9184 183.505 37.12 184.174 37.12C185.078 37.12 185.707 36.7571 186.022 36.031C186.376 35.3046 186.533 34.094 186.572 32.4398L191.802 32.7626C191.841 33.0047 191.841 33.3275 191.841 33.7308C191.841 36.2727 191.173 38.1693 189.796 39.4199C188.42 40.6705 186.533 41.3162 184.056 41.3162C181.067 41.3162 178.983 40.348 177.804 38.4518C176.624 36.5551 175.995 33.5691 175.995 29.575V24.6928C176.128 17.8339 177.304 12.8104 184.213 12.7904ZM111.508 13.3149V33.5291C111.508 34.7397 111.626 35.6274 111.901 36.1519C112.459 37.2735 113.907 36.9869 114.693 36.4343C115.147 36.1193 115.513 35.6882 115.755 35.1837V13.3145H121.771V40.8721H117.052L116.541 37.4829H116.423C115.126 40.0248 113.199 41.3158 110.643 41.3158C106.709 41.3058 105.747 38.3975 105.517 35.4439L105.502 35.2357C105.474 34.7883 105.457 34.3403 105.453 33.892V13.3149H111.508ZM142.533 13.3149V33.5291C142.533 34.7397 142.65 35.6274 142.926 36.1519C143.484 37.2735 144.931 36.9869 145.717 36.4343C146.171 36.1193 146.537 35.6882 146.779 35.1837V13.3145H152.795V40.8721H148.077L147.565 37.4829H147.448C146.15 40.0248 144.223 41.3158 141.667 41.3158C137.734 41.3058 136.771 38.3975 136.542 35.4439L136.527 35.2357C136.499 34.7883 136.482 34.3403 136.477 33.892V13.3149H142.533ZM94.0492 12.7904C96.0153 12.7904 97.6274 13.1937 98.8072 14.041C99.9866 14.8883 100.891 16.1797 101.442 17.9547C101.992 19.7301 102.267 22.1104 102.267 25.056V29.0502C102.267 31.9957 101.992 34.336 101.442 36.1111C100.891 37.8869 100.026 39.1779 98.8072 40.0252C97.5884 40.8321 95.9366 41.2757 93.892 41.2757C91.7684 41.3161 90.1169 40.8725 88.8982 40.0656C87.6794 39.2183 86.8139 37.9269 86.3032 36.1519C85.7917 34.3764 85.5558 32.0361 85.5558 29.0909V25.096C85.5558 22.1505 85.831 19.7297 86.4209 17.9543C87.0108 16.1389 87.9149 14.8475 89.1734 14.041C90.4316 13.2337 92.0437 12.79 94.0492 12.79M162.232 1.73499V16.2601H162.272C162.822 15.2111 163.53 14.3638 164.513 13.7182C165.431 13.085 166.513 12.7479 167.619 12.75C169.074 12.75 170.175 13.1533 171.001 13.9198C171.827 14.7271 172.417 15.9776 172.77 17.7127C173.113 19.3934 173.308 21.718 173.32 24.6493L173.321 24.9352V29.2926C173.321 33.3675 172.81 36.3939 171.866 38.3306C170.883 40.2672 169.389 41.2357 167.344 41.2357C166.204 41.2357 165.181 40.9533 164.238 40.4288C163.404 39.9295 162.712 39.214 162.232 38.354L162.154 38.2093H162.036L161.407 40.8321H156.413V1.73537L162.232 1.73499ZM138.168 3.14717V8.14984H132.191V40.8721H126.293V8.15023H120.277V3.14755L138.168 3.14717ZM73.3267 3.14717L73.3304 3.16256C73.3878 3.4246 74.1828 7.05126 75.0573 11.2767L75.1263 11.6114L75.2306 12.1174L75.3003 12.4572L75.3352 12.6277L75.4049 12.9694L75.4398 13.1406L75.5092 13.4834L75.6104 13.9848C76.2011 16.9108 76.7647 19.8452 77.1018 21.9492H77.2593C77.5822 20.0618 78.0513 17.6465 78.5516 15.1804L78.6828 14.5362C78.7485 14.2135 78.8148 13.8913 78.8815 13.5696L78.9843 13.0705C79.6636 9.80245 80.3632 6.53885 81.0832 3.27992L81.0944 3.22798L81.1124 3.14717H87.1286L80.1686 28.6069V40.8321H74.2312V28.6469H74.1918L67.3105 3.14678L73.3267 3.14717ZM93.9311 17.067C93.1053 17.067 92.5548 17.511 92.2012 18.4392C91.8475 19.3673 91.6901 20.7791 91.6901 22.7565V31.3504C91.6901 33.3679 91.8472 34.8605 92.1618 35.7486C92.4766 36.6362 93.0663 37.08 93.9311 37.08C94.7568 37.08 95.3467 36.6362 95.7007 35.7486C96.0547 34.8605 96.2118 33.3679 96.2118 31.3504V22.7561C96.2118 20.7791 96.0543 19.3265 95.7007 18.4388C95.3467 17.511 94.7568 17.067 93.9311 17.067ZM163.294 17.8743C162.815 18.3283 162.474 18.8882 162.271 19.5881L162.232 19.7301V35.385C162.72 36.2323 163.412 36.7972 164.631 36.8376C165.26 36.8376 165.771 36.5955 166.165 36.1115C166.558 35.6274 166.833 34.8204 166.99 33.6904C167.141 32.606 167.22 31.1125 167.226 29.2098V25.3789C167.226 23.2002 167.147 21.546 167.029 20.3758C166.872 19.2057 166.676 18.3584 166.322 17.8743C165.637 16.8654 164.159 16.8777 163.294 17.8743ZM184.095 16.9462C183.427 16.9864 182.955 17.1882 182.679 17.5514C182.365 17.9547 182.168 18.56 182.05 19.4477C181.935 20.3173 181.895 23.3572 181.893 23.4788V25.4597H186.297V23.7127V23.7462C186.294 24.3569 186.282 23.3918 186.255 22.207L186.251 22.0477C186.226 21.0065 186.19 19.8456 186.14 19.4477C186.022 18.5196 185.825 17.8739 185.511 17.511C185.196 17.1478 184.724 16.9462 184.095 16.9462" fill="#282828"/>
</svg>
